<?xml version="1.0" encoding="UTF-8" standalone="no"?><svg xmlns="http://www.w3.org/2000/svg" xmlns:xlink="http://www.w3.org/1999/xlink" contentScriptType="application/ecmascript" contentStyleType="text/css" height="2185px" preserveAspectRatio="none" style="width:314px;height:2185px;" version="1.1" viewBox="0 0 314 2185" width="314px" zoomAndPan="magnify"><defs><filter height="300%" id="fd3qr8s9ebsrh" width="300%" x="-1" y="-1"><feGaussianBlur result="blurOut" stdDeviation="2.0"/><feColorMatrix in="blurOut" result="blurOut2" type="matrix" values="0 0 0 0 0 0 0 0 0 0 0 0 0 0 0 0 0 0 .4 0"/><feOffset dx="4.0" dy="4.0" in="blurOut2" result="blurOut3"/><feBlend in="SourceGraphic" in2="blurOut3" mode="normal"/></filter></defs><g><ellipse cx="68" cy="18" fill="#000000" filter="url(#fd3qr8s9ebsrh)" rx="10" ry="10" style="stroke: none; stroke-width: 1.0;"/><rect fill="#FEFECE" filter="url(#fd3qr8s9ebsrh)" height="34.1328" rx="12.5" ry="12.5" style="stroke: #A80036; stroke-width: 1.5;" width="88" x="24" y="68"/><text fill="#000000" font-family="sans-serif" font-size="12" lengthAdjust="spacingAndGlyphs" textLength="68" x="34" y="89.6016">null,null,null</text><rect fill="#FEFECE" filter="url(#fd3qr8s9ebsrh)" height="34.1328" rx="12.5" ry="12.5" style="stroke: #A80036; stroke-width: 1.5;" width="76" x="30" y="142"/><text fill="#000000" font-family="sans-serif" font-size="12" lengthAdjust="spacingAndGlyphs" textLength="56" x="40" y="163.6016">0,null,null</text><rect fill="#FEFECE" filter="url(#fd3qr8s9ebsrh)" height="34.1328" rx="12.5" ry="12.5" style="stroke: #A80036; stroke-width: 1.5;" width="64" x="36" y="216"/><text fill="#000000" font-family="sans-serif" font-size="12" lengthAdjust="spacingAndGlyphs" textLength="44" x="46" y="237.6016">0,0,null</text><rect fill="#FF0000" filter="url(#fd3qr8s9ebsrh)" height="34.1328" rx="12.5" ry="12.5" style="stroke: #A80036; stroke-width: 1.5;" width="52" x="42" y="290"/><text fill="#000000" font-family="sans-serif" font-size="12" lengthAdjust="spacingAndGlyphs" textLength="32" x="52" y="311.6016">0,0,0</text><rect fill="#FEFECE" filter="url(#fd3qr8s9ebsrh)" height="34.1328" rx="12.5" ry="12.5" style="stroke: #A80036; stroke-width: 1.5;" width="52" x="100" y="364"/><text fill="#000000" font-family="sans-serif" font-size="12" lengthAdjust="spacingAndGlyphs" textLength="32" x="110" y="385.6016">1,0,0</text><rect fill="#FEFECE" filter="url(#fd3qr8s9ebsrh)" height="34.1328" rx="12.5" ry="12.5" style="stroke: #A80036; stroke-width: 1.5;" width="52" x="100" y="438"/><text fill="#000000" font-family="sans-serif" font-size="12" lengthAdjust="spacingAndGlyphs" textLength="32" x="110" y="459.6016">2,0,0</text><rect fill="#FEFECE" filter="url(#fd3qr8s9ebsrh)" height="34.1328" rx="12.5" ry="12.5" style="stroke: #A80036; stroke-width: 1.5;" width="52" x="100" y="512"/><text fill="#000000" font-family="sans-serif" font-size="12" lengthAdjust="spacingAndGlyphs" textLength="32" x="110" y="533.6016">3,0,0</text><rect fill="#FEFECE" filter="url(#fd3qr8s9ebsrh)" height="34.1328" rx="12.5" ry="12.5" style="stroke: #A80036; stroke-width: 1.5;" width="52" x="100" y="586"/><text fill="#000000" font-family="sans-serif" font-size="12" lengthAdjust="spacingAndGlyphs" textLength="32" x="110" y="607.6016">4,0,0</text><rect fill="#FEFECE" filter="url(#fd3qr8s9ebsrh)" height="34.1328" rx="12.5" ry="12.5" style="stroke: #A80036; stroke-width: 1.5;" width="52" x="100" y="660"/><text fill="#000000" font-family="sans-serif" font-size="12" lengthAdjust="spacingAndGlyphs" textLength="32" x="110" y="681.6016">5,0,0</text><rect fill="#FEFECE" filter="url(#fd3qr8s9ebsrh)" height="34.1328" rx="12.5" ry="12.5" style="stroke: #A80036; stroke-width: 1.5;" width="52" x="129" y="882"/><text fill="#000000" font-family="sans-serif" font-size="12" lengthAdjust="spacingAndGlyphs" textLength="32" x="139" y="903.6016">5,0,1</text><rect fill="#FEFECE" filter="url(#fd3qr8s9ebsrh)" height="34.1328" rx="12.5" ry="12.5" style="stroke: #A80036; stroke-width: 1.5;" width="52" x="129" y="956"/><text fill="#000000" font-family="sans-serif" font-size="12" lengthAdjust="spacingAndGlyphs" textLength="32" x="139" y="977.6016">5,0,2</text><rect fill="#FEFECE" filter="url(#fd3qr8s9ebsrh)" height="34.1328" rx="12.5" ry="12.5" style="stroke: #A80036; stroke-width: 1.5;" width="52" x="171" y="1030"/><text fill="#000000" font-family="sans-serif" font-size="12" lengthAdjust="spacingAndGlyphs" textLength="32" x="181" y="1051.6016">5,0,3</text><rect fill="#FEFECE" filter="url(#fd3qr8s9ebsrh)" height="34.1328" rx="12.5" ry="12.5" style="stroke: #A80036; stroke-width: 1.5;" width="52" x="171" y="1104"/><text fill="#000000" font-family="sans-serif" font-size="12" lengthAdjust="spacingAndGlyphs" textLength="32" x="181" y="1125.6016">4,0,3</text><rect fill="#FEFECE" filter="url(#fd3qr8s9ebsrh)" height="34.1328" rx="12.5" ry="12.5" style="stroke: #A80036; stroke-width: 1.5;" width="52" x="171" y="1178"/><text fill="#000000" font-family="sans-serif" font-size="12" lengthAdjust="spacingAndGlyphs" textLength="32" x="181" y="1199.6016">3,0,3</text><rect fill="#FEFECE" filter="url(#fd3qr8s9ebsrh)" height="34.1328" rx="12.5" ry="12.5" style="stroke: #A80036; stroke-width: 1.5;" width="52" x="171" y="1252"/><text fill="#000000" font-family="sans-serif" font-size="12" lengthAdjust="spacingAndGlyphs" textLength="32" x="181" y="1273.6016">3,0,4</text><rect fill="#FEFECE" filter="url(#fd3qr8s9ebsrh)" height="34.1328" rx="12.5" ry="12.5" style="stroke: #A80036; stroke-width: 1.5;" width="52" x="177" y="1326"/><text fill="#000000" font-family="sans-serif" font-size="12" lengthAdjust="spacingAndGlyphs" textLength="32" x="187" y="1347.6016">3,0,5</text><rect fill="#FEFECE" filter="url(#fd3qr8s9ebsrh)" height="34.1328" rx="12.5" ry="12.5" style="stroke: #A80036; stroke-width: 1.5;" width="52" x="178" y="1400"/><text fill="#000000" font-family="sans-serif" font-size="12" lengthAdjust="spacingAndGlyphs" textLength="32" x="188" y="1421.6016">2,0,5</text><rect fill="#FEFECE" filter="url(#fd3qr8s9ebsrh)" height="34.1328" rx="12.5" ry="12.5" style="stroke: #A80036; stroke-width: 1.5;" width="52" x="180" y="1474"/><text fill="#000000" font-family="sans-serif" font-size="12" lengthAdjust="spacingAndGlyphs" textLength="32" x="190" y="1495.6016">1,0,5</text><rect fill="#FEFECE" filter="url(#fd3qr8s9ebsrh)" height="34.1328" rx="12.5" ry="12.5" style="stroke: #A80036; stroke-width: 1.5;" width="52" x="183" y="1548"/><text fill="#000000" font-family="sans-serif" font-size="12" lengthAdjust="spacingAndGlyphs" textLength="32" x="193" y="1569.6016">0,0,5</text><rect fill="#FEFECE" filter="url(#fd3qr8s9ebsrh)" height="34.1328" rx="12.5" ry="12.5" style="stroke: #A80036; stroke-width: 1.5;" width="52" x="189" y="1622"/><text fill="#000000" font-family="sans-serif" font-size="12" lengthAdjust="spacingAndGlyphs" textLength="32" x="199" y="1643.6016">0,0,4</text><rect fill="#FEFECE" filter="url(#fd3qr8s9ebsrh)" height="34.1328" rx="12.5" ry="12.5" style="stroke: #A80036; stroke-width: 1.5;" width="52" x="190" y="1696"/><text fill="#000000" font-family="sans-serif" font-size="12" lengthAdjust="spacingAndGlyphs" textLength="32" x="200" y="1717.6016">0,1,4</text><rect fill="#FEFECE" filter="url(#fd3qr8s9ebsrh)" height="34.1328" rx="12.5" ry="12.5" style="stroke: #A80036; stroke-width: 1.5;" width="52" x="190" y="1770"/><text fill="#000000" font-family="sans-serif" font-size="12" lengthAdjust="spacingAndGlyphs" textLength="32" x="200" y="1791.6016">0,1,3</text><rect fill="#FEFECE" filter="url(#fd3qr8s9ebsrh)" height="34.1328" rx="12.5" ry="12.5" style="stroke: #A80036; stroke-width: 1.5;" width="52" x="141" y="1844"/><text fill="#000000" font-family="sans-serif" font-size="12" lengthAdjust="spacingAndGlyphs" textLength="32" x="151" y="1865.6016">0,0,3</text><rect fill="#FEFECE" filter="url(#fd3qr8s9ebsrh)" height="34.1328" rx="12.5" ry="12.5" style="stroke: #A80036; stroke-width: 1.5;" width="52" x="141" y="1918"/><text fill="#000000" font-family="sans-serif" font-size="12" lengthAdjust="spacingAndGlyphs" textLength="32" x="151" y="1939.6016">0,0,2</text><rect fill="#FEFECE" filter="url(#fd3qr8s9ebsrh)" height="34.1328" rx="12.5" ry="12.5" style="stroke: #A80036; stroke-width: 1.5;" width="52" x="213" y="1844"/><text fill="#000000" font-family="sans-serif" font-size="12" lengthAdjust="spacingAndGlyphs" textLength="32" x="223" y="1865.6016">0,1,2</text><rect fill="#FEFECE" filter="url(#fd3qr8s9ebsrh)" height="34.1328" rx="12.5" ry="12.5" style="stroke: #A80036; stroke-width: 1.5;" width="52" x="57" y="1992"/><text fill="#000000" font-family="sans-serif" font-size="12" lengthAdjust="spacingAndGlyphs" textLength="32" x="67" y="2013.6016">0,0,1</text><rect fill="#FEFECE" filter="url(#fd3qr8s9ebsrh)" height="34.1328" rx="12.5" ry="12.5" style="stroke: #A80036; stroke-width: 1.5;" width="52" x="57" y="2066"/><text fill="#000000" font-family="sans-serif" font-size="12" lengthAdjust="spacingAndGlyphs" textLength="32" x="67" y="2087.6016">0,1,1</text><rect fill="#FEFECE" filter="url(#fd3qr8s9ebsrh)" height="34.1328" rx="12.5" ry="12.5" style="stroke: #A80036; stroke-width: 1.5;" width="52" x="23" y="2140"/><text fill="#000000" font-family="sans-serif" font-size="12" lengthAdjust="spacingAndGlyphs" textLength="32" x="33" y="2161.6016">0,1,0</text><rect fill="#FEFECE" filter="url(#fd3qr8s9ebsrh)" height="34.1328" rx="12.5" ry="12.5" style="stroke: #A80036; stroke-width: 1.5;" width="52" x="157" y="734"/><text fill="#000000" font-family="sans-serif" font-size="12" lengthAdjust="spacingAndGlyphs" textLength="32" x="167" y="755.6016">6,0,0</text><rect fill="#FEFECE" filter="url(#fd3qr8s9ebsrh)" height="34.1328" rx="12.5" ry="12.5" style="stroke: #A80036; stroke-width: 1.5;" width="52" x="231" y="808"/><text fill="#000000" font-family="sans-serif" font-size="12" lengthAdjust="spacingAndGlyphs" textLength="32" x="241" y="829.6016">7,0,0</text><rect fill="#FEFECE" filter="url(#fd3qr8s9ebsrh)" height="34.1328" rx="12.5" ry="12.5" style="stroke: #A80036; stroke-width: 1.5;" width="52" x="236" y="882"/><text fill="#000000" font-family="sans-serif" font-size="12" lengthAdjust="spacingAndGlyphs" textLength="32" x="246" y="903.6016">8,0,0</text><rect fill="#FEFECE" filter="url(#fd3qr8s9ebsrh)" height="34.1328" rx="12.5" ry="12.5" style="stroke: #A80036; stroke-width: 1.5;" width="52" x="245" y="956"/><text fill="#000000" font-family="sans-serif" font-size="12" lengthAdjust="spacingAndGlyphs" textLength="32" x="255" y="977.6016">9,0,0</text><rect fill="#FEFECE" filter="url(#fd3qr8s9ebsrh)" height="34.1328" rx="12.5" ry="12.5" style="stroke: #A80036; stroke-width: 1.5;" width="60" x="243" y="1030"/><text fill="#000000" font-family="sans-serif" font-size="12" lengthAdjust="spacingAndGlyphs" textLength="40" x="253" y="1051.6016">10,0,0</text><rect fill="#FEFECE" filter="url(#fd3qr8s9ebsrh)" height="34.1328" rx="12.5" ry="12.5" style="stroke: #A80036; stroke-width: 1.5;" width="52" x="157" y="808"/><text fill="#000000" font-family="sans-serif" font-size="12" lengthAdjust="spacingAndGlyphs" textLength="32" x="167" y="829.6016">6,0,1</text><rect fill="#FEFECE" filter="url(#fd3qr8s9ebsrh)" height="34.1328" rx="12.5" ry="12.5" style="stroke: #A80036; stroke-width: 1.5;" width="52" x="99" y="1030"/><text fill="#000000" font-family="sans-serif" font-size="12" lengthAdjust="spacingAndGlyphs" textLength="32" x="109" y="1051.6016">4,0,2</text><rect fill="#FEFECE" filter="url(#fd3qr8s9ebsrh)" height="34.1328" rx="12.5" ry="12.5" style="stroke: #A80036; stroke-width: 1.5;" width="52" x="99" y="1104"/><text fill="#000000" font-family="sans-serif" font-size="12" lengthAdjust="spacingAndGlyphs" textLength="32" x="109" y="1125.6016">3,0,2</text><rect fill="#FEFECE" filter="url(#fd3qr8s9ebsrh)" height="34.1328" rx="12.5" ry="12.5" style="stroke: #A80036; stroke-width: 1.5;" width="52" x="99" y="1178"/><text fill="#000000" font-family="sans-serif" font-size="12" lengthAdjust="spacingAndGlyphs" textLength="32" x="109" y="1199.6016">2,0,2</text><rect fill="#FEFECE" filter="url(#fd3qr8s9ebsrh)" height="34.1328" rx="12.5" ry="12.5" style="stroke: #A80036; stroke-width: 1.5;" width="52" x="99" y="1326"/><text fill="#000000" font-family="sans-serif" font-size="12" lengthAdjust="spacingAndGlyphs" textLength="32" x="109" y="1347.6016">1,0,2</text><!--link start to null,null,null--><path d="M68,28.04 C68,36.93 68,50.84 68,62.57 " fill="none" id="start-null,null,null" style="stroke: #A80036; stroke-width: 1.0;"/><polygon fill="#A80036" points="68,67.78,72,58.78,68,62.78,64,58.78,68,67.78" style="stroke: #A80036; stroke-width: 1.0;"/><!--link null,null,null to 0,null,null--><path d="M68,102.34 C68,112.46 68,125.58 68,136.54 " fill="none" id="null,null,null-0,null,null" style="stroke: #A80036; stroke-width: 1.0;"/><polygon fill="#A80036" points="68,141.73,72,132.73,68,136.73,64,132.73,68,141.73" style="stroke: #A80036; stroke-width: 1.0;"/><!--link 0,null,null to 0,0,null--><path d="M68,176.34 C68,186.46 68,199.58 68,210.54 " fill="none" id="0,null,null-0,0,null" style="stroke: #A80036; stroke-width: 1.0;"/><polygon fill="#A80036" points="68,215.73,72,206.73,68,210.73,64,206.73,68,215.73" style="stroke: #A80036; stroke-width: 1.0;"/><!--link 0,0,null to 0,0,0--><path d="M68,250.34 C68,260.46 68,273.58 68,284.54 " fill="none" id="0,0,null-0,0,0" style="stroke: #A80036; stroke-width: 1.0;"/><polygon fill="#A80036" points="68,289.73,72,280.73,68,284.73,64,280.73,68,289.73" style="stroke: #A80036; stroke-width: 1.0;"/><!--link 0,0,0 to 1,0,0--><path d="M74.76,324.34 C81.97,334.92 93,348.78 103.11,360.02 " fill="none" id="0,0,0-1,0,0" style="stroke: #A80036; stroke-width: 1.0;"/><polygon fill="#A80036" points="106.5,363.73,103.3949,354.3834,103.1324,360.0342,97.4816,359.7716,106.5,363.73" style="stroke: #A80036; stroke-width: 1.0;"/><!--link 1,0,0 to 0,0,0--><path d="M119.28,363.73 C112.09,353.15 101.06,339.3 90.95,328.05 " fill="none" id="1,0,0-0,0,0" style="stroke: #A80036; stroke-width: 1.0;"/><polygon fill="#A80036" points="87.56,324.34,90.6651,333.6866,90.9276,328.0358,96.5784,328.2984,87.56,324.34" style="stroke: #A80036; stroke-width: 1.0;"/><!--link 1,0,0 to 2,0,0--><path d="M119.6,398.34 C118.34,408.46 118.16,421.58 119.07,432.54 " fill="none" id="1,0,0-2,0,0" style="stroke: #A80036; stroke-width: 1.0;"/><polygon fill="#A80036" points="119.61,437.73,122.6654,428.3671,119.097,432.7564,114.7076,429.1879,119.61,437.73" style="stroke: #A80036; stroke-width: 1.0;"/><!--link 2,0,0 to 1,0,0--><path d="M132.39,437.73 C133.66,427.61 133.84,414.49 132.93,403.53 " fill="none" id="2,0,0-1,0,0" style="stroke: #A80036; stroke-width: 1.0;"/><polygon fill="#A80036" points="132.4,398.34,129.3473,407.7038,132.9145,403.3135,137.3049,406.8806,132.4,398.34" style="stroke: #A80036; stroke-width: 1.0;"/><!--link 2,0,0 to 3,0,0--><path d="M119.6,472.34 C118.34,482.46 118.16,495.58 119.07,506.54 " fill="none" id="2,0,0-3,0,0" style="stroke: #A80036; stroke-width: 1.0;"/><polygon fill="#A80036" points="119.61,511.73,122.6654,502.3671,119.097,506.7564,114.7076,503.1879,119.61,511.73" style="stroke: #A80036; stroke-width: 1.0;"/><!--link 3,0,0 to 2,0,0--><path d="M132.39,511.73 C133.66,501.61 133.84,488.49 132.93,477.53 " fill="none" id="3,0,0-2,0,0" style="stroke: #A80036; stroke-width: 1.0;"/><polygon fill="#A80036" points="132.4,472.34,129.3473,481.7038,132.9145,477.3135,137.3049,480.8806,132.4,472.34" style="stroke: #A80036; stroke-width: 1.0;"/><!--link 3,0,0 to 4,0,0--><path d="M119.6,546.34 C118.34,556.46 118.16,569.58 119.07,580.54 " fill="none" id="3,0,0-4,0,0" style="stroke: #A80036; stroke-width: 1.0;"/><polygon fill="#A80036" points="119.61,585.73,122.6654,576.3671,119.097,580.7564,114.7076,577.1879,119.61,585.73" style="stroke: #A80036; stroke-width: 1.0;"/><!--link 4,0,0 to 3,0,0--><path d="M132.39,585.73 C133.66,575.61 133.84,562.49 132.93,551.53 " fill="none" id="4,0,0-3,0,0" style="stroke: #A80036; stroke-width: 1.0;"/><polygon fill="#A80036" points="132.4,546.34,129.3473,555.7038,132.9145,551.3135,137.3049,554.8806,132.4,546.34" style="stroke: #A80036; stroke-width: 1.0;"/><!--link 4,0,0 to 5,0,0--><path d="M119.6,620.34 C118.34,630.46 118.16,643.58 119.07,654.54 " fill="none" id="4,0,0-5,0,0" style="stroke: #A80036; stroke-width: 1.0;"/><polygon fill="#A80036" points="119.61,659.73,122.6654,650.3671,119.097,654.7564,114.7076,651.1879,119.61,659.73" style="stroke: #A80036; stroke-width: 1.0;"/><!--link 5,0,0 to 4,0,0--><path d="M132.39,659.73 C133.66,649.61 133.84,636.49 132.93,625.53 " fill="none" id="5,0,0-4,0,0" style="stroke: #A80036; stroke-width: 1.0;"/><polygon fill="#A80036" points="132.4,620.34,129.3473,629.7038,132.9145,625.3135,137.3049,628.8806,132.4,620.34" style="stroke: #A80036; stroke-width: 1.0;"/><!--link 5,0,0 to 5,0,1--><path d="M128.01,694.3 C131.66,723.79 139.68,787.95 147,842 C148.55,853.44 150.36,866.17 151.87,876.61 " fill="none" id="5,0,0-5,0,1" style="stroke: #A80036; stroke-width: 1.0;"/><polygon fill="#A80036" points="152.63,881.83,155.3017,872.3504,151.9149,876.8814,147.3839,873.4946,152.63,881.83" style="stroke: #A80036; stroke-width: 1.0;"/><!--link 5,0,1 to 5,0,2--><path d="M155,916.34 C155,926.46 155,939.58 155,950.54 " fill="none" id="5,0,1-5,0,2" style="stroke: #A80036; stroke-width: 1.0;"/><polygon fill="#A80036" points="155,955.73,159,946.73,155,950.73,151,946.73,155,955.73" style="stroke: #A80036; stroke-width: 1.0;"/><!--link 5,0,2 to 5,0,3--><path d="M164.53,990.34 C170.54,1000.65 178.37,1014.06 184.83,1025.14 " fill="none" id="5,0,2-5,0,3" style="stroke: #A80036; stroke-width: 1.0;"/><polygon fill="#A80036" points="187.51,1029.73,186.4343,1019.9401,184.9924,1025.4101,179.5224,1023.9682,187.51,1029.73" style="stroke: #A80036; stroke-width: 1.0;"/><!--link 5,0,3 to 4,0,3--><path d="M197,1064.34 C197,1074.46 197,1087.58 197,1098.54 " fill="none" id="5,0,3-4,0,3" style="stroke: #A80036; stroke-width: 1.0;"/><polygon fill="#A80036" points="197,1103.73,201,1094.73,197,1098.73,193,1094.73,197,1103.73" style="stroke: #A80036; stroke-width: 1.0;"/><!--link 4,0,3 to 3,0,3--><path d="M197,1138.34 C197,1148.46 197,1161.58 197,1172.54 " fill="none" id="4,0,3-3,0,3" style="stroke: #A80036; stroke-width: 1.0;"/><polygon fill="#A80036" points="197,1177.73,201,1168.73,197,1172.73,193,1168.73,197,1177.73" style="stroke: #A80036; stroke-width: 1.0;"/><!--link 3,0,3 to 3,0,4--><path d="M197,1212.34 C197,1222.46 197,1235.58 197,1246.54 " fill="none" id="3,0,3-3,0,4" style="stroke: #A80036; stroke-width: 1.0;"/><polygon fill="#A80036" points="197,1251.73,201,1242.73,197,1246.73,193,1242.73,197,1251.73" style="stroke: #A80036; stroke-width: 1.0;"/><!--link 3,0,4 to 3,0,5--><path d="M198.36,1286.34 C199.21,1296.46 200.3,1309.58 201.21,1320.54 " fill="none" id="3,0,4-3,0,5" style="stroke: #A80036; stroke-width: 1.0;"/><polygon fill="#A80036" points="201.64,1325.73,204.881,1316.4297,201.226,1320.7472,196.9085,1317.0921,201.64,1325.73" style="stroke: #A80036; stroke-width: 1.0;"/><!--link 3,0,5 to 2,0,5--><path d="M203.23,1360.34 C203.37,1370.46 203.55,1383.58 203.7,1394.54 " fill="none" id="3,0,5-2,0,5" style="stroke: #A80036; stroke-width: 1.0;"/><polygon fill="#A80036" points="203.77,1399.73,207.641,1390.6738,203.6986,1394.7305,199.6418,1390.7881,203.77,1399.73" style="stroke: #A80036; stroke-width: 1.0;"/><!--link 2,0,5 to 1,0,5--><path d="M204.45,1434.34 C204.74,1444.46 205.1,1457.58 205.4,1468.54 " fill="none" id="2,0,5-1,0,5" style="stroke: #A80036; stroke-width: 1.0;"/><polygon fill="#A80036" points="205.55,1473.73,209.2913,1464.6194,205.4072,1468.732,201.2946,1464.8479,205.55,1473.73" style="stroke: #A80036; stroke-width: 1.0;"/><!--link 1,0,5 to 0,0,5--><path d="M206.68,1508.34 C207.1,1518.46 207.65,1531.58 208.11,1542.54 " fill="none" id="1,0,5-0,0,5" style="stroke: #A80036; stroke-width: 1.0;"/><polygon fill="#A80036" points="208.32,1547.73,211.956,1538.5769,208.1196,1542.734,203.9625,1538.8976,208.32,1547.73" style="stroke: #A80036; stroke-width: 1.0;"/><!--link 0,0,5 to 0,0,4--><path d="M210.36,1582.34 C211.21,1592.46 212.3,1605.58 213.21,1616.54 " fill="none" id="0,0,5-0,0,4" style="stroke: #A80036; stroke-width: 1.0;"/><polygon fill="#A80036" points="213.64,1621.73,216.881,1612.4297,213.226,1616.7472,208.9085,1613.0921,213.64,1621.73" style="stroke: #A80036; stroke-width: 1.0;"/><!--link 0,0,4 to 0,1,4--><path d="M208.83,1656.34 C207.7,1666.46 207.71,1679.58 208.77,1690.54 " fill="none" id="0,0,4-0,1,4" style="stroke: #A80036; stroke-width: 1.0;"/><polygon fill="#A80036" points="209.38,1695.73,212.3261,1686.3321,208.809,1690.7627,204.3784,1687.2456,209.38,1695.73" style="stroke: #A80036; stroke-width: 1.0;"/><!--link 0,1,4 to 0,0,4--><path d="M222.17,1695.73 C223.29,1685.61 223.29,1672.49 222.23,1661.53 " fill="none" id="0,1,4-0,0,4" style="stroke: #A80036; stroke-width: 1.0;"/><polygon fill="#A80036" points="221.63,1656.34,218.7137,1665.7472,222.2167,1661.3055,226.6584,1664.8085,221.63,1656.34" style="stroke: #A80036; stroke-width: 1.0;"/><!--link 0,1,4 to 0,1,3--><path d="M209.6,1730.34 C208.34,1740.46 208.16,1753.58 209.07,1764.54 " fill="none" id="0,1,4-0,1,3" style="stroke: #A80036; stroke-width: 1.0;"/><polygon fill="#A80036" points="209.61,1769.73,212.6654,1760.3671,209.097,1764.7564,204.7076,1761.1879,209.61,1769.73" style="stroke: #A80036; stroke-width: 1.0;"/><!--link 0,1,3 to 0,1,4--><path d="M222.39,1769.73 C223.66,1759.61 223.84,1746.49 222.93,1735.53 " fill="none" id="0,1,3-0,1,4" style="stroke: #A80036; stroke-width: 1.0;"/><polygon fill="#A80036" points="222.4,1730.34,219.3473,1739.7038,222.9145,1735.3135,227.3049,1738.8806,222.4,1730.34" style="stroke: #A80036; stroke-width: 1.0;"/><!--link 0,0,4 to 0,0,3--><path d="M202.01,1656.09 C194.18,1666.75 184.82,1681.41 180,1696 C163.83,1744.97 164.01,1806.44 165.51,1838.42 " fill="none" id="0,0,4-0,0,3" style="stroke: #A80036; stroke-width: 1.0;"/><polygon fill="#A80036" points="165.78,1843.67,169.3125,1834.4764,165.5232,1838.6766,161.323,1834.8873,165.78,1843.67" style="stroke: #A80036; stroke-width: 1.0;"/><!--link 0,0,3 to 0,1,3--><path d="M184.47,1843.73 C192.76,1833.43 202.06,1820.02 208.64,1808.93 " fill="none" id="0,0,3-0,1,3" style="stroke: #A80036; stroke-width: 1.0;"/><polygon fill="#A80036" points="211.28,1804.34,203.3294,1810.1527,208.7901,1808.6759,210.2669,1814.1366,211.28,1804.34" style="stroke: #A80036; stroke-width: 1.0;"/><!--link 0,1,3 to 0,0,3--><path d="M198.48,1804.34 C190.18,1814.65 180.89,1828.06 174.32,1839.14 " fill="none" id="0,1,3-0,0,3" style="stroke: #A80036; stroke-width: 1.0;"/><polygon fill="#A80036" points="171.68,1843.73,179.6306,1837.9173,174.1699,1839.3941,172.6931,1833.9334,171.68,1843.73" style="stroke: #A80036; stroke-width: 1.0;"/><!--link 0,0,3 to 0,0,2--><path d="M167,1878.34 C167,1888.46 167,1901.58 167,1912.54 " fill="none" id="0,0,3-0,0,2" style="stroke: #A80036; stroke-width: 1.0;"/><polygon fill="#A80036" points="167,1917.73,171,1908.73,167,1912.73,163,1908.73,167,1917.73" style="stroke: #A80036; stroke-width: 1.0;"/><!--link 0,0,2 to 0,1,2--><path d="M189.39,1917.97 C201.33,1907.38 215.45,1893.41 225.73,1882.07 " fill="none" id="0,0,2-0,1,2" style="stroke: #A80036; stroke-width: 1.0;"/><polygon fill="#A80036" points="229.06,1878.34,220.0911,1882.4092,225.7382,1882.077,226.0704,1887.7241,229.06,1878.34" style="stroke: #A80036; stroke-width: 1.0;"/><!--link 0,1,2 to 0,0,2--><path d="M216.26,1878.34 C204.46,1888.83 190.61,1902.54 180.45,1913.73 " fill="none" id="0,1,2-0,0,2" style="stroke: #A80036; stroke-width: 1.0;"/><polygon fill="#A80036" points="176.88,1917.73,185.8499,1913.6629,180.2027,1913.9937,179.8719,1908.3466,176.88,1917.73" style="stroke: #A80036; stroke-width: 1.0;"/><!--link 0,0,2 to 0,0,1--><path d="M147.94,1952.34 C135.39,1963.09 118.91,1977.22 105.69,1988.55 " fill="none" id="0,0,2-0,0,1" style="stroke: #A80036; stroke-width: 1.0;"/><polygon fill="#A80036" points="101.7,1991.97,111.1365,1989.1499,105.4963,1988.716,105.9301,1983.0759,101.7,1991.97" style="stroke: #A80036; stroke-width: 1.0;"/><!--link 0,0,1 to 0,1,1--><path d="M76.6,2026.34 C75.34,2036.46 75.16,2049.58 76.07,2060.54 " fill="none" id="0,0,1-0,1,1" style="stroke: #A80036; stroke-width: 1.0;"/><polygon fill="#A80036" points="76.61,2065.73,79.6654,2056.3671,76.097,2060.7564,71.7076,2057.1879,76.61,2065.73" style="stroke: #A80036; stroke-width: 1.0;"/><!--link 0,1,1 to 0,0,1--><path d="M89.39,2065.73 C90.66,2055.61 90.84,2042.49 89.93,2031.53 " fill="none" id="0,1,1-0,0,1" style="stroke: #A80036; stroke-width: 1.0;"/><polygon fill="#A80036" points="89.4,2026.34,86.3473,2035.7038,89.9145,2031.3135,94.3049,2034.8806,89.4,2026.34" style="stroke: #A80036; stroke-width: 1.0;"/><!--link 0,0,1 to 0,0,0--><path d="M80.25,1991.85 C75.92,1964.99 68,1909.39 68,1862 C68,454 68,454 68,454 C68,409.62 68,357.64 68,329.23 " fill="none" id="0,0,1-0,0,0" style="stroke: #A80036; stroke-width: 1.0;"/><polygon fill="#A80036" points="68,324.2,64,333.2,68,329.2,72,333.2,68,324.2" style="stroke: #A80036; stroke-width: 1.0;"/><!--link 0,0,0 to 0,1,0--><path d="M51.69,324.4 C32.86,350.73 6,404.49 6,454 C6,454 6,454 6,2010 C6,2055.45 21.4,2106.94 34.35,2135 " fill="none" id="0,0,0-0,1,0" style="stroke: #A80036; stroke-width: 1.0;"/><polygon fill="#A80036" points="36.57,2139.63,36.2866,2129.7852,34.4087,2135.1213,29.0726,2133.2433,36.57,2139.63" style="stroke: #A80036; stroke-width: 1.0;"/><!--link 0,1,0 to 0,0,0--><path d="M49.02,2139.63 C43.23,2112.91 26,2058.08 26,2010 C26,454 26,454 26,454 C26,407.39 49.81,357.01 62.11,329.31 " fill="none" id="0,1,0-0,0,0" style="stroke: #A80036; stroke-width: 1.0;"/><polygon fill="#A80036" points="64.26,324.4,56.988,331.0421,62.2559,328.9808,64.3173,334.2487,64.26,324.4" style="stroke: #A80036; stroke-width: 1.0;"/><!--link 0,1,0 to 0,1,1--><path d="M63.08,2139.73 C69.17,2129.52 75.61,2116.26 79.88,2105.23 " fill="none" id="0,1,0-0,1,1" style="stroke: #A80036; stroke-width: 1.0;"/><polygon fill="#A80036" points="81.69,2100.34,74.8293,2107.4061,79.9641,2105.0327,82.3376,2110.1675,81.69,2100.34" style="stroke: #A80036; stroke-width: 1.0;"/><!--link 0,1,1 to 0,1,0--><path d="M68.88,2100.34 C62.79,2110.56 56.35,2123.82 52.09,2134.84 " fill="none" id="0,1,1-0,1,0" style="stroke: #A80036; stroke-width: 1.0;"/><polygon fill="#A80036" points="50.29,2139.73,57.1577,2132.6706,52.0205,2135.039,49.6521,2129.9018,50.29,2139.73" style="stroke: #A80036; stroke-width: 1.0;"/><!--link 0,1,1 to 0,1,2--><path d="M101.94,2065.64 C127.73,2042.52 173.99,1997.98 203,1952 C216.79,1930.15 226.99,1902.13 232.95,1883.2 " fill="none" id="0,1,1-0,1,2" style="stroke: #A80036; stroke-width: 1.0;"/><polygon fill="#A80036" points="234.51,1878.12,228.0354,1885.5416,233.0366,1882.898,235.6802,1887.8991,234.51,1878.12" style="stroke: #A80036; stroke-width: 1.0;"/><!--link 0,1,2 to 0,1,3--><path d="M240.19,1843.73 C238.21,1833.52 234.15,1820.26 229.69,1809.23 " fill="none" id="0,1,2-0,1,3" style="stroke: #A80036; stroke-width: 1.0;"/><polygon fill="#A80036" points="227.62,1804.34,227.4369,1814.1872,229.5654,1808.946,234.8065,1811.0745,227.62,1804.34" style="stroke: #A80036; stroke-width: 1.0;"/><!--link 0,1,3 to 0,1,2--><path d="M214.82,1804.34 C216.81,1814.56 220.88,1827.82 225.34,1838.84 " fill="none" id="0,1,3-0,1,2" style="stroke: #A80036; stroke-width: 1.0;"/><polygon fill="#A80036" points="227.41,1843.73,227.5672,1833.8824,225.4525,1839.1291,220.2058,1837.0144,227.41,1843.73" style="stroke: #A80036; stroke-width: 1.0;"/><!--link 5,0,0 to 6,0,0--><path d="M132.53,694.34 C139.53,704.83 150.25,718.54 160.13,729.73 " fill="none" id="5,0,0-6,0,0" style="stroke: #A80036; stroke-width: 1.0;"/><polygon fill="#A80036" points="163.72,733.73,160.6725,724.3645,160.3752,730.0135,154.7261,729.7162,163.72,733.73" style="stroke: #A80036; stroke-width: 1.0;"/><!--link 6,0,0 to 5,0,0--><path d="M176.51,733.73 C169.52,723.25 158.82,709.54 148.93,698.34 " fill="none" id="6,0,0-5,0,0" style="stroke: #A80036; stroke-width: 1.0;"/><polygon fill="#A80036" points="145.34,694.34,148.3875,703.7055,148.6848,698.0565,154.3339,698.3538,145.34,694.34" style="stroke: #A80036; stroke-width: 1.0;"/><!--link 6,0,0 to 7,0,0--><path d="M193.39,768.34 C203.1,779.09 217.51,793.22 230.27,804.55 " fill="none" id="6,0,0-7,0,0" style="stroke: #A80036; stroke-width: 1.0;"/><polygon fill="#A80036" points="234.17,807.97,230.0284,799.0343,230.4062,804.6785,224.762,805.0563,234.17,807.97" style="stroke: #A80036; stroke-width: 1.0;"/><!--link 7,0,0 to 6,0,0--><path d="M246.67,807.73 C237.04,797.06 222.77,783.05 210.08,771.75 " fill="none" id="7,0,0-6,0,0" style="stroke: #A80036; stroke-width: 1.0;"/><polygon fill="#A80036" points="206.19,768.34,210.2954,777.2924,209.9404,771.6467,215.5861,771.2917,206.19,768.34" style="stroke: #A80036; stroke-width: 1.0;"/><!--link 7,0,0 to 8,0,0--><path d="M251.73,842.34 C251.18,852.46 251.91,865.58 253.58,876.54 " fill="none" id="7,0,0-8,0,0" style="stroke: #A80036; stroke-width: 1.0;"/><polygon fill="#A80036" points="254.48,881.73,256.8788,872.1777,253.6233,876.8039,248.9971,873.5485,254.48,881.73" style="stroke: #A80036; stroke-width: 1.0;"/><!--link 8,0,0 to 7,0,0--><path d="M267.26,881.73 C267.83,871.61 267.1,858.49 265.43,847.53 " fill="none" id="8,0,0-7,0,0" style="stroke: #A80036; stroke-width: 1.0;"/><polygon fill="#A80036" points="264.54,842.34,262.1143,851.8855,265.3828,847.2685,269.9999,850.5369,264.54,842.34" style="stroke: #A80036; stroke-width: 1.0;"/><!--link 8,0,0 to 9,0,0--><path d="M257.64,916.34 C257.65,926.56 259.14,939.82 261.45,950.84 " fill="none" id="8,0,0-9,0,0" style="stroke: #A80036; stroke-width: 1.0;"/><polygon fill="#A80036" points="262.57,955.73,264.4625,946.0647,261.4551,950.8559,256.6639,947.8485,262.57,955.73" style="stroke: #A80036; stroke-width: 1.0;"/><!--link 9,0,0 to 8,0,0--><path d="M275.36,955.73 C275.36,945.52 273.87,932.26 271.56,921.23 " fill="none" id="9,0,0-8,0,0" style="stroke: #A80036; stroke-width: 1.0;"/><polygon fill="#A80036" points="270.44,916.34,268.5475,926.0053,271.5549,921.2141,276.3461,924.2215,270.44,916.34" style="stroke: #A80036; stroke-width: 1.0;"/><!--link 9,0,0 to 10,0,0--><path d="M265.05,990.34 C264.07,1000.46 264.26,1013.58 265.48,1024.54 " fill="none" id="9,0,0-10,0,0" style="stroke: #A80036; stroke-width: 1.0;"/><polygon fill="#A80036" points="266.16,1029.73,268.9426,1020.2824,265.5029,1024.7734,261.012,1021.3337,266.16,1029.73" style="stroke: #A80036; stroke-width: 1.0;"/><!--link 10,0,0 to 9,0,0--><path d="M278.94,1029.73 C279.93,1019.61 279.74,1006.49 278.53,995.53 " fill="none" id="10,0,0-9,0,0" style="stroke: #A80036; stroke-width: 1.0;"/><polygon fill="#A80036" points="277.85,990.34,275.0407,999.7797,278.493,995.2985,282.9742,998.7508,277.85,990.34" style="stroke: #A80036; stroke-width: 1.0;"/><!--link 6,0,0 to 6,0,1--><path d="M183,768.34 C183,778.46 183,791.58 183,802.54 " fill="none" id="6,0,0-6,0,1" style="stroke: #A80036; stroke-width: 1.0;"/><polygon fill="#A80036" points="183,807.73,187,798.73,183,802.73,179,798.73,183,807.73" style="stroke: #A80036; stroke-width: 1.0;"/><!--link 6,0,1 to 5,0,1--><path d="M176.65,842.34 C172.67,852.56 167.51,865.82 163.23,876.84 " fill="none" id="6,0,1-5,0,1" style="stroke: #A80036; stroke-width: 1.0;"/><polygon fill="#A80036" points="161.33,881.73,168.3241,874.7959,163.145,877.0711,160.8698,871.8919,161.33,881.73" style="stroke: #A80036; stroke-width: 1.0;"/><!--link 5,0,2 to 4,0,2--><path d="M148.19,990.34 C143.93,1000.56 138.41,1013.82 133.82,1024.84 " fill="none" id="5,0,2-4,0,2" style="stroke: #A80036; stroke-width: 1.0;"/><polygon fill="#A80036" points="131.78,1029.73,138.9234,1022.9498,133.696,1025.1117,131.5341,1019.8842,131.78,1029.73" style="stroke: #A80036; stroke-width: 1.0;"/><!--link 4,0,2 to 3,0,2--><path d="M125,1064.34 C125,1074.46 125,1087.58 125,1098.54 " fill="none" id="4,0,2-3,0,2" style="stroke: #A80036; stroke-width: 1.0;"/><polygon fill="#A80036" points="125,1103.73,129,1094.73,125,1098.73,121,1094.73,125,1103.73" style="stroke: #A80036; stroke-width: 1.0;"/><!--link 3,0,2 to 2,0,2--><path d="M125,1138.34 C125,1148.46 125,1161.58 125,1172.54 " fill="none" id="3,0,2-2,0,2" style="stroke: #A80036; stroke-width: 1.0;"/><polygon fill="#A80036" points="125,1177.73,129,1168.73,125,1172.73,121,1168.73,125,1177.73" style="stroke: #A80036; stroke-width: 1.0;"/><!--link 2,0,2 to 1,0,2--><path d="M125,1212.18 C125,1238.6 125,1291.01 125,1320.51 " fill="none" id="2,0,2-1,0,2" style="stroke: #A80036; stroke-width: 1.0;"/><polygon fill="#A80036" points="125,1325.75,129,1316.75,125,1320.75,121,1316.75,125,1325.75" style="stroke: #A80036; stroke-width: 1.0;"/><!--link 1,0,2 to 0,0,2--><path d="M122.25,1360.15 C117.92,1387.01 110,1442.61 110,1490 C110,1490 110,1490 110,1788 C110,1829.07 114.99,1840.17 131,1878 C136.28,1890.48 144.28,1903.28 151.39,1913.48 " fill="none" id="1,0,2-0,0,2" style="stroke: #A80036; stroke-width: 1.0;"/><polygon fill="#A80036" points="154.38,1917.69,152.4391,1908.0343,151.4887,1913.6107,145.9123,1912.6603,154.38,1917.69" style="stroke: #A80036; stroke-width: 1.0;"/><!--
@startuml
(*) - -> "null,null,null"
"null,null,null" - -> "0,null,null"
"0,null,null" - -> "0,0,null"
"0,0,null" - -> "0,0,0"
"0,0,0" - -> "1,0,0"
"1,0,0" - -> "2,0,0"
"2,0,0" - -> "3,0,0"
"3,0,0" - -> "4,0,0"
"4,0,0" - -> "5,0,0"
"5,0,0" - -> "5,0,1"
"5,0,1" - -> "5,0,2"
"5,0,2" - -> "5,0,3"
"5,0,3" - -> "4,0,3"
"4,0,3" - -> "3,0,3"
"3,0,3" - -> "3,0,4"
"3,0,4" - -> "3,0,5"
"3,0,5" - -> "2,0,5"
"2,0,5" - -> "1,0,5"
"1,0,5" - -> "0,0,5"
"0,0,5" - -> "0,0,4"
"0,0,4" - -> "0,1,4"
"0,1,4" - -> "0,1,3"
"0,1,3" - -> "0,1,4"
"0,1,4" - -> "0,0,4"
"0,0,4" - -> "0,0,3"
"0,0,3" - -> "0,1,3"
"0,1,3" - -> "0,0,3"
"0,0,3" - -> "0,0,2"
"0,0,2" - -> "0,1,2"
"0,1,2" - -> "0,0,2"
"0,0,2" - -> "0,0,1"
"0,0,1" - -> "0,1,1"
"0,1,1" - -> "0,0,1"
"0,0,1" - -> "0,0,0"
"0,0,0" - -> "0,1,0"
"0,1,0" - -> "0,0,0"
"0,1,0" - -> "0,1,1"
"0,1,1" - -> "0,1,2"
"0,1,2" - -> "0,1,3"
"0,1,3" - -> "0,1,2"
"0,1,1" - -> "0,1,0"
"5,0,0" - -> "6,0,0"
"6,0,0" - -> "7,0,0"
"7,0,0" - -> "8,0,0"
"8,0,0" - -> "9,0,0"
"9,0,0" - -> "10,0,0"
"10,0,0" - -> "9,0,0"
"9,0,0" - -> "8,0,0"
"8,0,0" - -> "7,0,0"
"7,0,0" - -> "6,0,0"
"6,0,0" - -> "6,0,1"
"6,0,1" - -> "5,0,1"
"5,0,2" - -> "4,0,2"
"4,0,2" - -> "3,0,2"
"3,0,2" - -> "2,0,2"
"2,0,2" - -> "1,0,2"
"1,0,2" - -> "0,0,2"
"6,0,0" - -> "5,0,0"
"5,0,0" - -> "4,0,0"
"4,0,0" - -> "3,0,0"
"3,0,0" - -> "2,0,0"
"2,0,0" - -> "1,0,0"
"1,0,0" - -> "0,0,0" #red
@enduml

PlantUML version 1.2019.00(Sun Jan 13 10:46:42 EST 2019)
(EPL source distribution)
Java Runtime: Java(TM) SE Runtime Environment
JVM: Java HotSpot(TM) 64-Bit Server VM
Java Version: 1.8.0_131-b11
Operating System: Mac OS X
OS Version: 10.15
Default Encoding: UTF-8
Language: en
Country: US
--></g></svg>